<?xml version="1.0" encoding="UTF-8" standalone="no"?>
<!-- Created with Inkscape (http://www.inkscape.org/) -->

<svg
   xmlns:dc="http://purl.org/dc/elements/1.1/"
   xmlns:cc="http://creativecommons.org/ns#"
   xmlns:rdf="http://www.w3.org/1999/02/22-rdf-syntax-ns#"
   xmlns:svg="http://www.w3.org/2000/svg"
   xmlns="http://www.w3.org/2000/svg"
   xmlns:sodipodi="http://sodipodi.sourceforge.net/DTD/sodipodi-0.dtd"
   xmlns:inkscape="http://www.inkscape.org/namespaces/inkscape"
   width="42.680248mm"
   height="55.31411mm"
   viewBox="0 0 42.680248 55.31411"
   version="1.1"
   id="svg8"
   inkscape:version="0.92.2 (5c3e80d, 2017-08-06)"
   sodipodi:docname="logo.svg">
  <defs
     id="defs2" />
  <sodipodi:namedview
     id="base"
     pagecolor="#ffffff"
     bordercolor="#666666"
     borderopacity="1.0"
     inkscape:pageopacity="0.0"
     inkscape:pageshadow="2"
     inkscape:zoom="1.4"
     inkscape:cx="75.114357"
     inkscape:cy="125.82425"
     inkscape:document-units="mm"
     inkscape:current-layer="flowRoot815"
     showgrid="false"
     inkscape:window-width="3000"
     inkscape:window-height="1875"
     inkscape:window-x="-13"
     inkscape:window-y="-13"
     inkscape:window-maximized="1" />
  <metadata
     id="metadata5">
    <rdf:RDF>
      <cc:Work
         rdf:about="">
        <dc:format>image/svg+xml</dc:format>
        <dc:type
           rdf:resource="http://purl.org/dc/dcmitype/StillImage" />
        <dc:title></dc:title>
      </cc:Work>
    </rdf:RDF>
  </metadata>
  <g
     inkscape:label="Layer 1"
     inkscape:groupmode="layer"
     id="layer1"
     transform="translate(-18.742368,-99.35157)">
    <g
       aria-label="T"
       transform="matrix(2.2379811,0,0,2.2379811,-197.58259,-739.42673)"
       style="font-style:normal;font-weight:normal;font-size:40px;line-height:1.25;font-family:sans-serif;letter-spacing:0px;word-spacing:0px;fill:#000000;fill-opacity:1;stroke:none"
       id="flowRoot815">
      <path
         d="m 98.982154,382.18823 -0.9668,-0.0293 q -0.0293,-1.18164 -0.0293,-2.0996 0,-0.94727 0.0879,-1.6211 0.0879,-0.68359 0.36133,-1.12305 0.2832,-0.43945 0.81054,-0.64453 0.53711,-0.20507 1.416016,-0.20507 0.55664,0 1.2793,0.0293 0.72265,0.0293 1.52343,0.0586 0.80078,0.0293 1.64063,0.0586 0.84961,0.0293 1.64062,0.0293 1.32813,0 2.34375,0 1.01563,-0.01 1.80664,-0.0195 0.79102,-0.01 1.38672,-0.0293 0.59571,-0.0195 1.08399,-0.0586 0.49804,-0.0391 0.91797,-0.0879 0.42968,-0.0586 0.86914,-0.13671 0.16601,0.46875 0.16601,0.77148 0,0.64453 -0.54687,0.98633 -0.53711,0.34179 -1.60157,0.34179 -1.00586,0 -2.37304,-0.11718 -1.35742,-0.12696 -3.06641,-0.24414 -0.0293,1.44531 -0.0781,3.08593 -0.0391,1.64063 -0.0879,3.39844 -0.0488,1.74805 -0.10743,3.58399 -0.0488,1.82617 -0.10742,3.66211 -0.0586,1.82616 -0.11719,3.62304 -0.0488,1.79688 -0.0977,3.47656 l -2.31446,0.29297 -0.17578,-0.0195 q 0.0781,-1.86523 0.14649,-3.57422 0.0684,-1.71875 0.12695,-3.36914 0.0586,-1.65039 0.10742,-3.29101 0.0488,-1.65039 0.0781,-3.38867 0.0293,-1.73829 0.0488,-3.61329 0.0195,-1.88476 0.0195,-4.0039 -0.55664,-0.0195 -1.13282,-0.0293 -0.57617,-0.0195 -1.17187,-0.0195 -0.5957,0 -1.11328,0.0195 -0.51758,0.0195 -0.94727,0.13672 -0.42968,0.11719 -0.77148,0.37109 -0.341796,0.24414 -0.576166,0.70313 -0.23438,0.44922 -0.36133,1.15234 -0.11719,0.70313 -0.11719,1.71875 z"
         style="font-style:normal;font-variant:normal;font-weight:normal;font-stretch:normal;font-size:40px;line-height:1.25;font-family:Gabriola;-inkscape-font-specification:Gabriola;letter-spacing:0px;word-spacing:0px;fill:#aaccff;fill-opacity:1;stroke:none;stroke-width:1"
         id="path823-4"
         inkscape:connector-curvature="0" />
      <path
         d="m 98.585766,381.67397 -0.9668,-0.0293 q -0.0293,-1.18164 -0.0293,-2.0996 0,-0.94727 0.0879,-1.6211 0.0879,-0.68359 0.36133,-1.12305 0.2832,-0.43945 0.81054,-0.64453 0.53711,-0.20507 1.416024,-0.20507 0.55664,0 1.27929,0.0293 0.72265,0.0293 1.52343,0.0586 0.80078,0.0293 1.64063,0.0586 0.84961,0.0293 1.64062,0.0293 1.32813,0 2.34375,0 1.01563,-0.01 1.80664,-0.0195 0.79102,-0.01 1.38672,-0.0293 0.59571,-0.0195 1.08399,-0.0586 0.49804,-0.0391 0.91797,-0.0879 0.42968,-0.0586 0.86914,-0.13671 0.16601,0.46875 0.16601,0.77148 0,0.64453 -0.54687,0.98633 -0.53711,0.34179 -1.60157,0.34179 -1.00586,0 -2.37304,-0.11718 -1.35742,-0.12696 -3.06641,-0.24414 -0.0293,1.44531 -0.0781,3.08593 -0.0391,1.64063 -0.0879,3.39844 -0.0488,1.74805 -0.10743,3.58399 -0.0488,1.82617 -0.10742,3.66211 -0.0586,1.82617 -0.11719,3.62304 -0.0488,1.79688 -0.0977,3.47656 l -2.31446,0.29297 -0.17578,-0.0195 q 0.0781,-1.86523 0.14649,-3.57422 0.0684,-1.71875 0.12695,-3.36914 0.0586,-1.65039 0.10742,-3.29101 0.0488,-1.65039 0.0781,-3.38867 0.0293,-1.73829 0.0488,-3.61329 0.0195,-1.88476 0.0195,-4.0039 -0.55664,-0.0195 -1.13282,-0.0293 -0.57617,-0.0195 -1.17187,-0.0195 -0.5957,0 -1.11328,0.0195 -0.51757,0.0195 -0.94726,0.13672 -0.429684,0.11719 -0.771484,0.37109 -0.3418,0.24414 -0.57617,0.70313 -0.23438,0.44922 -0.36133,1.15234 -0.11719,0.70313 -0.11719,1.71875 z"
         style="font-style:normal;font-variant:normal;font-weight:normal;font-stretch:normal;font-family:Gabriola;-inkscape-font-specification:Gabriola"
         id="path823"
         inkscape:connector-curvature="0" />
    </g>
  </g>
</svg>
